<?xml version="1.0" encoding="utf-8"?>
<!-- Generator: Adobe Illustrator 23.0.5, SVG Export Plug-In . SVG Version: 6.00 Build 0)  -->
<svg version="1.1" id="Layer_1" xmlns="http://www.w3.org/2000/svg" xmlns:xlink="http://www.w3.org/1999/xlink" x="0px" y="0px"
	 viewBox="0 0 250.59 28.44" style="enable-background:new 0 0 250.59 28.44;" xml:space="preserve">
<g>
	<g>
		<path d="M23.68,6.35L13.52,17.6H12.7L2.59,6.49V27.8H0V0.59h0.82L13.16,14.2L25.54,0.59h0.68V27.8h-2.54V6.35z"/>
		<path d="M59.61,27.8h-2.59V0.59h2.59V27.8z"/>
		<path d="M90.41,27.8V0.59H93V25.4h16.24v2.4H90.41z"/>
		<path d="M136.5,27.8V0.59h2.59V25.4h16.24v2.4H136.5z"/>
		<path d="M192.07,0.59h0.64L206,27.8h-2.95l-2.59-5.17h-16.1l-2.59,5.17h-2.9L192.07,0.59z M192.57,5.85h-0.36l-6.35,13.84
			l-0.27,0.5h13.65l-0.27-0.5L192.57,5.85z"/>
		<path d="M231.95,23.31c0,0,2.86,2.68,8.3,2.68c5.4,0,7.71-2.04,7.71-5.08s-2.36-4.35-7.89-5.9c-6.08-1.77-9.48-3.54-9.48-7.8
			c0-4.58,3.9-7.21,9.93-7.21c6.53,0,9.44,2.54,9.44,2.54l-1.41,2.13c0,0-2.77-2.22-8.03-2.22c-4.08,0-7.3,1.63-7.3,4.76
			c0,2.68,2.4,3.81,7.89,5.35c6.58,1.82,9.48,3.99,9.48,8.3s-3.09,7.58-10.3,7.58c-6.67,0-9.8-3.13-9.8-3.13L231.95,23.31z"/>
	</g>
</g>
</svg>
