<?xml version="1.0" encoding="utf-8"?>
<!-- Generator: Adobe Illustrator 23.0.6, SVG Export Plug-In . SVG Version: 6.00 Build 0)  -->
<svg version="1.1" id="Layer_1" xmlns="http://www.w3.org/2000/svg" xmlns:xlink="http://www.w3.org/1999/xlink" x="0px" y="0px"
	 viewBox="0 0 110.02 74.97" style="enable-background:new 0 0 110.02 74.97;" xml:space="preserve">
<path d="M0.5,31.35c-0.67-2.26-0.66-4.34,0.03-6.23c0.69-1.89,1.73-3.61,3.12-5.15c1.39-1.54,3-2.92,4.84-4.15
	c1.84-1.22,3.57-2.28,5.2-3.17c3.52-1.93,7.57-3.74,12.13-5.42c4.56-1.69,9.4-3.13,14.52-4.31c2.49-0.56,4.92-1.07,7.29-1.53
	c2.37-0.46,4.79-0.82,7.23-1.06C57.3,0.09,59.8-0.02,62.36,0c2.56,0.02,5.29,0.23,8.18,0.64c2.85,0.37,4.51,1.23,4.95,2.59
	c0.45,1.35-0.35,3.12-2.39,5.31c-1.82,1.97-3.62,3.93-5.4,5.9c-1.78,1.97-3.62,3.89-5.51,5.79c-2.9,3-5.84,5.96-8.85,8.87
	c-3,2.91-5.96,5.87-8.87,8.87c-2.91,3-5.74,6.08-8.48,9.23c-2.75,3.15-5.32,6.45-7.73,9.9c-0.48,0.7-0.92,1.37-1.31,2
	c-0.39,0.63-0.67,1.14-0.83,1.53c-0.17,0.39-0.2,0.61-0.11,0.67c0.09,0.05,0.38-0.14,0.86-0.59c1.71-1.56,3.48-3.23,5.31-5.01
	c1.84-1.78,3.75-3.62,5.73-5.51c1.98-1.89,4.05-3.81,6.2-5.76c2.15-1.95,4.4-3.85,6.73-5.7c4.38-3.41,8.77-6.7,13.19-9.88
	c4.41-3.17,8.98-6.18,13.69-9.04c0.37-0.22,0.9-0.53,1.59-0.92c0.68-0.39,1.46-0.82,2.34-1.31c0.87-0.48,1.8-0.98,2.78-1.5
	s1.93-1.01,2.84-1.47c0.91-0.46,1.77-0.88,2.59-1.25c0.82-0.37,1.48-0.65,2-0.83c1.34-0.52,2.53-0.83,3.59-0.95
	c1.06-0.11,1.95-0.06,2.67,0.17c0.72,0.22,1.24,0.6,1.56,1.14c0.32,0.54,0.36,1.2,0.14,1.98c-0.11,0.37-0.32,0.8-0.61,1.28
	c-0.3,0.48-0.6,0.94-0.92,1.36c-0.32,0.43-0.61,0.81-0.89,1.14c-0.28,0.33-0.45,0.56-0.53,0.67c-1.56,1.82-3.14,3.63-4.73,5.43
	c-1.59,1.8-3.17,3.61-4.73,5.42c-4.27,4.9-8.37,9.89-12.32,14.97c-3.95,5.08-7.48,10.5-10.6,16.24c5.27-4.71,10.59-9.3,15.97-13.77
	c5.38-4.47,11.02-8.63,16.91-12.49c0.74-0.48,1.53-1,2.37-1.56c0.83-0.56,1.7-1.07,2.59-1.53c0.89-0.46,1.81-0.82,2.75-1.08
	c0.94-0.26,1.9-0.35,2.86-0.28c0.45,0.04,0.83,0.21,1.17,0.53c0.33,0.32,0.57,0.69,0.72,1.11c0.15,0.43,0.21,0.88,0.2,1.36
	c-0.02,0.48-0.16,0.89-0.42,1.22c-1.85,1.97-3.64,3.86-5.37,5.67c-1.73,1.82-3.36,3.69-4.9,5.62c-1.54,1.93-2.95,3.98-4.23,6.15
	c-1.28,2.17-2.38,4.57-3.31,7.21c-0.52,1.48-0.94,3.02-1.25,4.62c-0.31,1.59-0.36,3.11-0.14,4.54c0.22,1.43,0.81,2.7,1.75,3.81
	c0.95,1.11,2.42,1.91,4.42,2.39l-5.01,0.05c-1.37-0.41-2.37-1.15-3-2.22c-0.63-1.08-1.02-2.28-1.17-3.62
	c-0.15-1.34-0.12-2.69,0.08-4.06c0.2-1.37,0.45-2.6,0.75-3.67c1.08-3.78,2.64-7.39,4.7-10.82c2.06-3.43,4.39-6.63,6.98-9.6
	c1.19-1.3,2.38-2.56,3.59-3.78c1.2-1.22,2.4-2.47,3.59-3.73c-0.71,0-1.56,0.23-2.56,0.7c-1,0.46-2.02,1.01-3.06,1.64
	c-1.04,0.63-2.03,1.27-2.98,1.92c-0.95,0.65-1.7,1.18-2.25,1.59c-4.15,2.89-8.18,5.91-12.07,9.04c-3.9,3.14-7.77,6.37-11.63,9.71
	c-0.74,0.63-1.49,1.27-2.25,1.92c-0.76,0.65-1.55,1.34-2.36,2.09c-1.19,1-2.31,1.71-3.37,2.11c-1.06,0.41-1.87,0.48-2.45,0.22
	c-0.58-0.26-0.85-0.86-0.83-1.81c0.02-0.95,0.51-2.25,1.47-3.92c0.44-0.78,0.88-1.54,1.31-2.28c0.43-0.74,0.9-1.52,1.42-2.34
	c2.89-4.67,6.04-9.1,9.46-13.3c3.41-4.19,6.9-8.36,10.46-12.52c1.59-1.85,3.18-3.67,4.76-5.45c1.57-1.78,3.14-3.6,4.7-5.45
	c0.89-1,1.37-1.71,1.42-2.11c0.06-0.41-0.1-0.64-0.47-0.7c-0.37-0.05-0.86,0.01-1.48,0.2c-0.61,0.19-1.16,0.37-1.64,0.56
	c-1.08,0.41-2.12,0.85-3.14,1.33c-1.02,0.48-2.01,0.98-2.98,1.5c-1.3,0.63-2.55,1.29-3.76,1.97c-1.21,0.69-2.4,1.4-3.59,2.14
	c-1.41,0.89-2.82,1.78-4.23,2.67c-1.41,0.89-2.8,1.82-4.17,2.78c-3.11,2.08-6.22,4.25-9.32,6.51c-3.1,2.26-6.09,4.56-8.99,6.9
	c-2.04,1.63-4.04,3.37-6.01,5.2c-1.97,1.84-3.93,3.71-5.9,5.62c-1.97,1.91-3.93,3.79-5.9,5.65c-1.97,1.85-3.97,3.58-6.01,5.17
	c-2.08,1.63-3.62,2.51-4.62,2.64c-1,0.13-1.57-0.22-1.7-1.06c-0.13-0.84,0.13-2.04,0.78-3.62c0.65-1.58,1.6-3.29,2.87-5.15
	c1.56-2.34,3.4-4.78,5.54-7.34c2.13-2.56,4.45-5.17,6.95-7.85c2.5-2.67,5.12-5.4,7.85-8.18c2.72-2.78,5.49-5.57,8.29-8.37
	c2.8-2.8,5.57-5.58,8.32-8.34c2.74-2.76,5.36-5.48,7.84-8.15c1.37-1.45,1.94-2.44,1.7-2.98c-0.24-0.54-1.31-0.95-3.2-1.25
	c-2.37-0.33-4.87-0.48-7.48-0.44c-2.62,0.04-5.23,0.21-7.85,0.53c-2.61,0.32-5.16,0.7-7.65,1.17c-2.49,0.46-4.8,0.94-6.95,1.42
	c-4.27,1.04-8.44,2.33-12.52,3.87c-4.08,1.54-8.03,3.37-11.85,5.48c-1.19,0.56-2.4,1.22-3.65,2c-1.24,0.78-2.41,1.65-3.5,2.61
	c-1.1,0.97-2.05,2.02-2.87,3.17c-0.82,1.15-1.4,2.36-1.75,3.62c-0.35,1.26-0.41,2.58-0.17,3.95c0.24,1.37,0.88,2.78,1.92,4.23
	L0.5,31.35z"/>
</svg>
