<?xml version="1.0" encoding="utf-8"?>
<!-- Generator: Adobe Illustrator 23.0.5, SVG Export Plug-In . SVG Version: 6.00 Build 0)  -->
<svg version="1.1" id="Layer_1" xmlns="http://www.w3.org/2000/svg" xmlns:xlink="http://www.w3.org/1999/xlink" x="0px" y="0px"
	 viewBox="0 0 401.82 352.1" style="enable-background:new 0 0 401.82 352.1;" xml:space="preserve">
<g>
	<g>
		<path d="M76.6,325.08l-12.43,13.76h-1l-12.38-13.6v26.08h-3.16v-33.29h1l15.09,16.65l15.15-16.65h0.84v33.29H76.6V325.08z"/>
		<path d="M120.55,351.33h-3.16v-33.29h3.16V351.33z"/>
		<path d="M158.24,351.33v-33.29h3.16v30.35h19.87v2.94H158.24z"/>
		<path d="M214.62,351.33v-33.29h3.16v30.35h19.87v2.94H214.62z"/>
		<path d="M282.6,318.03h0.78l16.26,33.29h-3.61l-3.16-6.33h-19.7l-3.16,6.33h-3.55L282.6,318.03z M283.21,324.47h-0.44L275,341.39
			l-0.33,0.61h16.7l-0.33-0.61L283.21,324.47z"/>
		<path d="M331.38,345.83c0,0,3.5,3.28,10.15,3.28c6.61,0,9.43-2.5,9.43-6.22c0-3.72-2.88-5.33-9.66-7.21
			c-7.43-2.16-11.59-4.33-11.59-9.55c0-5.6,4.77-8.82,12.15-8.82c7.99,0,11.54,3.1,11.54,3.1l-1.72,2.61c0,0-3.38-2.72-9.82-2.72
			c-4.99,0-8.93,2-8.93,5.82c0,3.28,2.94,4.66,9.66,6.55c8.05,2.22,11.6,4.88,11.6,10.16c0,5.27-3.78,9.27-12.6,9.27
			c-8.16,0-11.99-3.83-11.99-3.83L331.38,345.83z"/>
	</g>
	<g>
		<path d="M1.81,114.51c-2.44-8.26-2.41-15.85,0.1-22.76c2.51-6.91,6.3-13.17,11.38-18.8c5.08-5.62,10.97-10.67,17.68-15.14
			s13.04-8.33,19-11.58c12.87-7.04,27.64-13.65,44.3-19.81c16.66-6.16,34.34-11.41,53.03-15.75c9.08-2.03,17.95-3.89,26.62-5.59
			c8.67-1.69,17.48-2.98,26.42-3.86c8.94-0.88,18.08-1.28,27.43-1.22c9.35,0.07,19.31,0.85,29.87,2.34
			c10.43,1.36,16.46,4.51,18.08,9.45s-1.29,11.41-8.74,19.4c-6.64,7.18-13.21,14.36-19.71,21.54c-6.5,7.18-13.21,14.23-20.12,21.13
			c-10.57,10.97-21.34,21.78-32.32,32.41c-10.97,10.64-21.78,21.44-32.41,32.41c-10.64,10.97-20.97,22.22-30.99,33.73
			c-10.03,11.52-19.45,23.57-28.25,36.17c-1.76,2.57-3.35,5.01-4.78,7.31c-1.42,2.3-2.44,4.17-3.05,5.59
			c-0.61,1.42-0.74,2.23-0.4,2.44c0.34,0.2,1.38-0.51,3.15-2.14c6.23-5.69,12.7-11.78,19.41-18.29c6.71-6.5,13.68-13.21,20.93-20.12
			c7.24-6.91,14.8-13.92,22.65-21.03c7.86-7.11,16.06-14.05,24.59-20.83c15.98-12.46,32.04-24.49,48.16-36.07
			s32.78-22.59,49.99-33.02c1.35-0.81,3.28-1.93,5.79-3.35c2.5-1.42,5.35-3.01,8.53-4.78c3.18-1.76,6.57-3.59,10.16-5.48
			c3.59-1.9,7.04-3.69,10.37-5.38c3.32-1.7,6.46-3.22,9.45-4.58c2.98-1.35,5.42-2.37,7.31-3.05c4.88-1.89,9.25-3.05,13.11-3.45
			c3.86-0.41,7.12-0.2,9.76,0.61c2.64,0.81,4.54,2.21,5.69,4.17c1.15,1.96,1.32,4.37,0.51,7.21c-0.41,1.36-1.15,2.92-2.24,4.67
			c-1.09,1.76-2.21,3.42-3.35,4.98c-1.15,1.56-2.24,2.95-3.25,4.16c-1.02,1.22-1.66,2.03-1.93,2.44
			c-5.69,6.64-11.45,13.24-17.27,19.81c-5.83,6.57-11.59,13.18-17.27,19.81c-15.58,17.88-30.58,36.1-45.01,54.66
			c-14.43,18.56-27.33,38.34-38.71,59.33c19.24-17.2,38.67-33.96,58.32-50.29c19.64-16.32,40.23-31.53,61.77-45.62
			c2.71-1.76,5.59-3.66,8.64-5.69c3.05-2.03,6.2-3.89,9.45-5.59c3.25-1.69,6.6-3.01,10.06-3.96c3.45-0.94,6.94-1.28,10.46-1.01
			c1.63,0.13,3.05,0.78,4.27,1.93c1.22,1.15,2.09,2.51,2.64,4.06c0.54,1.56,0.78,3.22,0.71,4.98c-0.07,1.76-0.58,3.25-1.53,4.47
			c-6.77,7.18-13.3,14.09-19.6,20.73c-6.3,6.64-12.26,13.48-17.89,20.52c-5.62,7.05-10.77,14.53-15.44,22.45
			c-4.67,7.93-8.7,16.69-12.09,26.32c-1.9,5.42-3.42,11.04-4.58,16.87c-1.15,5.82-1.32,11.35-0.51,16.56
			c0.81,5.21,2.94,9.85,6.4,13.92c3.46,4.06,8.84,6.97,16.15,8.74l-18.29,0.2c-5.02-1.49-8.67-4.2-10.97-8.13
			c-2.3-3.93-3.73-8.33-4.27-13.21c-0.55-4.88-0.44-9.82,0.3-14.83c0.74-5.01,1.66-9.48,2.75-13.41
			c3.93-13.82,9.65-26.99,17.17-39.52c7.52-12.53,16.02-24.22,25.5-35.05c4.34-4.74,8.7-9.35,13.11-13.82s8.77-9.01,13.11-13.62
			c-2.57,0-5.69,0.85-9.35,2.54c-3.65,1.7-7.38,3.69-11.17,5.99c-3.8,2.31-7.42,4.64-10.87,7.01c-3.46,2.37-6.19,4.3-8.23,5.79
			c-15.17,10.57-29.87,21.58-44.09,33.02c-14.23,11.45-28.39,23.27-42.47,35.46c-2.71,2.3-5.46,4.64-8.23,7.01
			c-2.78,2.37-5.66,4.91-8.64,7.62c-4.34,3.66-8.43,6.23-12.3,7.72c-3.86,1.49-6.84,1.76-8.94,0.81s-3.11-3.15-3.05-6.6
			c0.07-3.46,1.86-8.23,5.38-14.33c1.63-2.84,3.22-5.62,4.78-8.33c1.55-2.71,3.28-5.55,5.18-8.53
			c10.57-17.07,22.08-33.26,34.54-48.57c12.47-15.31,25.2-30.55,38.21-45.72c5.82-6.77,11.61-13.41,17.37-19.91
			c5.75-6.5,11.48-13.14,17.17-19.91c3.25-3.66,4.98-6.23,5.18-7.72c0.2-1.49-0.37-2.34-1.72-2.54s-3.15,0.04-5.38,0.71
			c-2.23,0.68-4.23,1.36-6,2.03c-3.93,1.49-7.75,3.12-11.48,4.87c-3.73,1.76-7.35,3.59-10.87,5.49c-4.75,2.3-9.31,4.71-13.72,7.21
			c-4.4,2.51-8.77,5.11-13.11,7.82c-5.15,3.25-10.3,6.5-15.44,9.75s-10.23,6.64-15.24,10.16c-11.38,7.59-22.72,15.51-34.03,23.77
			c-11.32,8.26-22.25,16.66-32.82,25.2c-7.45,5.96-14.77,12.29-21.94,19c-7.18,6.7-14.36,13.55-21.54,20.52
			c-7.18,6.98-14.36,13.85-21.54,20.62c-7.18,6.77-14.5,13.07-21.95,18.9c-7.59,5.96-13.21,9.18-16.87,9.65
			c-3.66,0.47-5.73-0.81-6.2-3.86c-0.47-3.05,0.47-7.45,2.84-13.21c2.37-5.76,5.86-12.02,10.47-18.8
			c5.69-8.53,12.43-17.47,20.22-26.82c7.79-9.35,16.25-18.9,25.4-28.65c9.14-9.76,18.7-19.71,28.66-29.87
			c9.95-10.16,20.04-20.35,30.27-30.58C209.85,76.75,219.98,66.59,230,56.5c10.02-10.09,19.57-20.02,28.65-29.77
			c5.01-5.28,7.08-8.91,6.2-10.87c-0.88-1.96-4.78-3.49-11.68-4.57c-8.67-1.22-17.78-1.76-27.33-1.63
			c-9.55,0.14-19.1,0.78-28.66,1.93c-9.55,1.15-18.86,2.57-27.94,4.27c-9.08,1.7-17.54,3.42-25.4,5.18
			c-15.58,3.79-30.82,8.5-45.72,14.12c-14.9,5.63-29.33,12.29-43.28,20.02c-4.34,2.03-8.77,4.47-13.31,7.32
			c-4.54,2.84-8.81,6.03-12.8,9.55c-4,3.53-7.49,7.39-10.47,11.58c-2.98,4.2-5.11,8.61-6.4,13.21c-1.29,4.61-1.49,9.42-0.61,14.43
			s3.22,10.16,7.01,15.44L1.81,114.51z"/>
	</g>
</g>
</svg>
